<svg version="1.2" xmlns="http://www.w3.org/2000/svg" viewBox="0 0 852 852" width="852" height="852"><style>tspan{white-space:pre}.a{fill:none;stroke:#050505;stroke-miterlimit:10;stroke-width:16}.b{font-size: 7px;fill: #a62419;font-weight: bold;font-family: "Arial"}</style><path class="a" d=""/><path class="a" d="m8.1 10.1v594l158.6-163.5c0 0-5.2-45.3 28.8-77.9 31.8-30.6 81.1-23.9 105.8 1.1 30.4 30.6 36 80.6 15.6 103.2-36.1 40-80.2 30.3-80.2 30.3l-228.6 295.2v51.7h834v-834.1z"/><text style="transform:matrix(8,-0.026,.026,8,681.823,829.16)" ><tspan x="0" y="0" class="b">NTAP
</tspan></text><path class="a" d="m141.5 620.3c47.7 100.9 89.7 188.8 131.1 223.9"/><path class="a" d="m842.1 259.9c0 0-258.8-217.5-464.1-225.7-391.9-15.8-341.5 256.5-311.6 380.9 5.3 22.3 16.9 59.4 28.3 90.2"/><path class="a" d="m625.5 235.7c0 0-46.7-11.5-12.7 20.5 33.9 32 63.6 12.8 12.7-20.5z"/><path class="a" d="m110.9 497.9c0 0-38.2-128.2-13.2-219.8 25-91.6 101.8-120.3 227.9-65 216.2 94.7 414.8 301.5 516.5 474.7"/><path class="a" d="m310.6 473.4c32.7-13.6 90.1-24 118.7-27.2 82.2-9.1 90.3-10.7 35.7-53.5 0 0-317.7-239.7-323.3 25.7-0.5 24.1-1.1 28.3-0.2 46"/></svg>